<?xml version="1.0" standalone="no"?>
<!DOCTYPE svg PUBLIC "-//W3C//DTD SVG 20010904//EN"
 "http://www.w3.org/TR/2001/REC-SVG-20010904/DTD/svg10.dtd">
<svg version="1.0" xmlns="http://www.w3.org/2000/svg"
 width="516.000000pt" height="516.000000pt" viewBox="0 0 516.000000 516.000000"
 preserveAspectRatio="xMidYMid meet">
<metadata>
Created by potrace 1.14, written by Peter Selinger 2001-2017
</metadata>
<g transform="translate(0.000000,516.000000) scale(0.100000,-0.100000)"
fill="#000000" stroke="none">
<path d="M923 5005 c-88 -27 -157 -79 -199 -150 -43 -73 -51 -104 -53 -202 -1
-48 -5 -90 -8 -93 -2 -3 -51 -5 -109 -6 -57 0 -107 -3 -111 -7 -10 -10 -11
-47 -2 -47 5 0 5 -8 2 -17 -7 -18 -7 -32 0 -133 5 -65 23 -157 44 -221 8 -25
16 -52 17 -60 7 -35 77 -175 123 -245 31 -48 134 -160 179 -194 57 -44 108
-73 161 -91 45 -16 55 -17 68 -10 6 3 15 6 20 6 17 1 98 46 150 85 64 48 195
178 195 194 0 3 12 22 26 43 53 78 141 293 128 314 -3 5 -1 9 4 9 5 0 9 6 10
13 0 6 4 26 7 42 13 70 17 116 19 215 l1 105 -105 1 c-58 1 -110 2 -117 3 -7
1 -11 26 -12 72 -1 134 -27 205 -101 280 -90 90 -226 128 -337 94z m183 -171
c36 -22 64 -50 64 -63 0 -5 5 -11 11 -13 17 -6 22 -195 6 -200 -7 -2 -88 -3
-182 -3 l-170 0 -1 93 c0 65 4 96 13 104 7 6 13 15 13 21 0 15 50 58 84 73 41
17 126 11 162 -12z m-55 -533 c26 -2 76 -59 82 -94 6 -39 -14 -91 -42 -109
-22 -13 -28 -57 -11 -74 5 -5 11 -21 14 -34 2 -14 5 -25 6 -25 1 0 3 -16 6
-36 l4 -35 -95 0 c-58 0 -95 5 -95 11 0 5 7 29 15 53 9 24 17 51 19 60 1 9 7
25 11 35 6 14 1 25 -17 40 -58 51 -64 127 -15 177 16 16 33 27 38 24 5 -3 9
-1 9 3 0 5 12 8 28 7 15 -1 34 -3 43 -3z"/>
<path d="M2375 4730 c-11 -4 -24 -5 -28 -3 -4 3 -14 -1 -22 -7 -11 -10 -15
-10 -15 -1 0 7 -3 10 -7 8 -8 -5 -60 -15 -113 -22 -14 -2 -36 -6 -50 -9 -14
-4 -38 -9 -55 -11 -16 -3 -38 -8 -47 -11 -9 -3 -25 -7 -35 -9 -52 -12 -121
-33 -140 -43 -20 -11 -21 -19 -21 -152 0 -77 1 -140 3 -140 1 0 20 7 41 16 21
9 45 17 53 19 9 2 36 9 61 16 25 7 50 13 55 15 6 1 30 7 55 14 25 7 56 14 70
15 14 2 25 4 25 5 0 1 16 4 35 7 19 2 62 8 95 13 66 9 425 6 465 -4 14 -4 43
-9 65 -12 74 -10 150 -25 220 -46 39 -12 76 -21 83 -21 6 0 12 -5 12 -10 0 -6
3 -8 6 -4 7 7 192 -70 271 -113 119 -66 209 -123 278 -177 81 -64 134 -111
205 -183 81 -82 99 -103 169 -195 17 -22 34 -44 39 -50 67 -87 230 -402 222
-431 -1 -4 2 -10 7 -13 10 -6 53 -137 53 -159 0 -7 5 -12 12 -12 6 0 9 -2 6
-5 -3 -3 3 -45 14 -93 25 -108 28 -126 33 -184 1 -25 6 -55 9 -66 4 -11 3 -23
-2 -26 -5 -3 -14 18 -21 47 -15 63 -49 175 -60 202 -5 11 -16 36 -24 55 -9 19
-19 47 -22 63 -4 15 -11 27 -16 27 -5 0 -9 5 -9 11 0 18 -73 159 -83 159 -4 0
-5 5 -2 10 3 6 2 10 -2 10 -5 0 -22 23 -38 50 -16 28 -33 50 -38 50 -4 0 -6 4
-3 9 4 5 3 11 -1 13 -5 1 -26 26 -47 53 -22 28 -50 61 -63 74 -13 13 -23 28
-23 33 0 5 -4 6 -10 3 -5 -3 -10 -2 -10 4 0 9 -57 71 -66 71 -2 0 -17 14 -32
30 -16 17 -35 30 -42 30 -7 0 -10 3 -7 7 4 3 -10 18 -31 32 -42 28 -55 39 -83
64 -10 9 -20 17 -21 16 -7 -2 -58 25 -58 31 0 7 -54 34 -57 28 -1 -1 -9 6 -17
17 -9 11 -16 16 -16 10 0 -7 -3 -7 -8 0 -4 6 -25 19 -47 30 -22 10 -48 26 -57
34 -10 8 -18 11 -18 7 0 -3 -11 1 -24 10 -14 8 -27 15 -30 15 -4 -1 -27 8 -54
20 -88 40 -107 47 -192 74 -47 15 -89 29 -95 30 -25 6 -33 8 -75 21 -25 7 -58
15 -75 18 -16 2 -64 11 -105 20 -136 28 -213 37 -337 39 -40 1 -73 6 -73 10 0
5 -5 5 -11 1 -7 -4 -86 -8 -176 -9 -141 -3 -162 -1 -152 11 7 8 14 12 17 9 3
-3 14 2 24 12 10 9 18 13 18 10 0 -4 20 2 45 13 25 11 45 17 45 13 0 -3 7 0
15 7 8 7 15 10 15 6 0 -3 12 -1 26 5 15 5 42 12 62 15 72 12 77 23 7 18 -99
-6 -167 -15 -235 -30 -14 -3 -25 -5 -25 -5 0 0 -18 -4 -40 -10 -22 -5 -56 -12
-74 -16 -19 -3 -64 -15 -100 -27 l-66 -22 -21 -79 c-40 -149 -101 -285 -175
-389 -54 -75 -59 -83 -94 -122 -19 -21 -35 -42 -35 -46 0 -5 -4 -8 -9 -8 -5 0
-31 -22 -58 -50 -26 -27 -51 -50 -55 -50 -4 0 -18 -10 -31 -22 -34 -32 -111
-83 -120 -80 -4 1 -7 -2 -7 -7 0 -5 -10 -13 -22 -17 -13 -3 -30 -12 -38 -19
-8 -7 -40 -21 -70 -32 -56 -20 -86 -17 -130 12 -8 5 -23 11 -33 12 -10 2 -38
17 -62 33 -24 17 -48 30 -53 30 -6 0 -12 3 -14 8 -1 4 -25 23 -53 42 -27 19
-63 47 -80 62 -29 27 -30 27 -47 8 -10 -11 -18 -26 -18 -35 0 -8 -5 -15 -11
-15 -5 0 -7 -4 -4 -10 3 -5 1 -10 -5 -10 -6 0 -8 -5 -4 -11 3 -6 2 -14 -3 -18
-8 -5 -59 -133 -68 -171 -7 -29 -37 -135 -43 -150 -7 -20 -9 -29 -16 -70 -4
-19 -9 -43 -12 -52 -13 -43 -32 -180 -38 -278 -1 -14 -4 -29 -7 -35 -12 -23
-1 -370 15 -480 3 -16 8 -50 11 -75 11 -78 13 -84 25 -129 6 -25 13 -54 15
-65 1 -12 5 -28 8 -36 10 -26 47 -144 51 -161 22 -89 201 -456 228 -467 4 -2
8 -10 8 -17 0 -8 11 -26 25 -41 14 -15 25 -30 25 -34 0 -7 59 -84 133 -174 75
-91 238 -249 311 -301 16 -11 33 -25 40 -31 21 -19 141 -101 196 -132 82 -48
277 -142 294 -142 8 0 17 -4 20 -9 3 -4 27 -14 53 -21 27 -7 53 -16 58 -20 9
-6 73 -25 120 -35 11 -2 47 -11 80 -19 33 -8 76 -17 95 -19 19 -3 44 -8 55
-10 90 -21 479 -30 610 -14 221 27 446 84 613 157 84 37 217 105 220 113 2 4
8 7 12 7 14 0 112 62 186 118 23 17 45 32 48 32 3 0 16 10 30 22 14 13 44 39
68 58 46 39 196 186 243 240 17 19 59 73 93 120 34 47 66 90 70 95 4 6 11 18
15 28 3 9 11 17 17 17 5 0 10 7 10 15 0 8 18 42 40 76 22 34 37 65 34 70 -3 5
-1 9 4 9 4 0 19 24 32 53 57 129 101 233 104 247 2 8 8 28 14 43 7 16 12 35
12 43 0 9 5 24 11 36 6 11 12 32 15 46 5 33 12 67 14 67 3 0 22 95 36 185 3
19 7 46 10 60 18 97 24 389 10 525 -10 104 -14 140 -16 143 -2 1 -4 11 -5 22
-1 11 -3 21 -5 23 -1 1 -3 11 -5 22 -5 39 -16 90 -27 130 -5 22 -12 51 -15 65
-2 13 -9 30 -15 37 -6 7 -8 13 -5 13 7 0 -31 111 -72 210 -27 64 -92 196 -142
290 -25 46 -132 204 -184 270 -65 84 -227 260 -239 260 -2 0 -19 15 -38 33
-45 43 -86 77 -128 107 -19 13 -40 29 -46 35 -13 11 -25 19 -102 70 -30 19
-57 35 -62 35 -4 0 -19 9 -34 21 -14 11 -26 17 -26 14 0 -4 -7 -2 -15 5 -22
19 -106 60 -121 60 -7 0 -14 4 -16 8 -4 11 -216 93 -248 97 -3 0 -10 3 -16 7
-6 4 -21 9 -35 11 -13 3 -53 12 -89 21 -36 8 -77 18 -92 21 -16 3 -40 8 -55
11 -32 7 -63 12 -113 19 -62 9 -444 13 -465 5z m1355 -1075 c64 -33 124 -126
115 -177 -7 -34 -27 -68 -37 -62 -4 3 -8 0 -8 -6 0 -6 -4 -9 -9 -5 -5 3 -12 1
-16 -4 -4 -7 -15 -7 -30 -1 -14 5 -25 7 -25 4 0 -2 -15 3 -32 12 -38 20 -98
82 -98 101 0 7 -4 13 -8 13 -9 0 -8 77 2 108 14 43 82 50 146 17z m286 -341
c9 -35 -2 -56 -27 -52 -32 4 -45 31 -32 61 15 32 50 26 59 -9z m88 -130 c9 -8
17 -18 17 -22 13 -68 -2 -108 -42 -114 -16 -3 -29 -1 -29 4 0 4 -6 8 -14 8
-23 0 -40 77 -26 116 8 19 17 24 44 24 19 0 42 -7 50 -16z m406 -558 c0 -3 -4
-8 -10 -11 -5 -3 -10 -1 -10 4 0 6 5 11 10 11 6 0 10 -2 10 -4z"/>
</g>
</svg>
